<svg xmlns="http://www.w3.org/2000/svg" xmlns:xlink="http://www.w3.org/1999/xlink" width="500" zoomAndPan="magnify" viewBox="0 0 375 374.999991" height="500" preserveAspectRatio="xMidYMid meet" version="1.0"><defs><g/><clipPath id="8bb4330d41"><path d="M 30 39.683594 L 345 39.683594 L 345 326 L 30 326 Z M 30 39.683594 " clip-rule="nonzero"/></clipPath><clipPath id="2a52805683"><path d="M 5.804688 230 L 24 230 L 24 293 L 5.804688 293 Z M 5.804688 230 " clip-rule="nonzero"/></clipPath><clipPath id="98e246263d"><path d="M 351 230 L 369.554688 230 L 369.554688 293 L 351 293 Z M 351 230 " clip-rule="nonzero"/></clipPath><clipPath id="4c89ca9c7a"><path d="M 30 49.121094 L 345 49.121094 L 345 335.621094 L 30 335.621094 Z M 30 49.121094 " clip-rule="nonzero"/></clipPath><clipPath id="3a11ee3be9"><path d="M 5.804688 239 L 24 239 L 24 303 L 5.804688 303 Z M 5.804688 239 " clip-rule="nonzero"/></clipPath><clipPath id="5f3be036bd"><path d="M 351 239 L 369.554688 239 L 369.554688 303 L 351 303 Z M 351 239 " clip-rule="nonzero"/></clipPath></defs><g clip-path="url(#8bb4330d41)"><path fill="#000000" d="M 344.109375 222.566406 C 345.167969 207.59375 347.960938 132.207031 302.183594 82.625 C 275.164062 53.363281 236.753906 38.984375 187.996094 39.941406 C 139.265625 39.019531 100.832031 53.367188 73.8125 82.625 C 29.199219 130.945312 30.71875 203.785156 31.804688 221.3125 C 31.160156 223.738281 30.8125 226.285156 30.8125 228.914062 L 30.8125 296.140625 C 30.8125 312.441406 44.019531 325.65625 60.324219 325.65625 L 80.816406 325.65625 C 97.117188 325.65625 110.332031 312.441406 110.332031 296.140625 L 110.332031 228.914062 C 110.332031 212.617188 97.117188 199.402344 80.816406 199.402344 L 60.328125 199.402344 C 58.101562 199.402344 55.933594 199.65625 53.847656 200.125 C 54.964844 173.320312 61.472656 128.554688 90.15625 97.558594 C 112.734375 73.164062 145.636719 61.191406 187.777344 62.078125 L 188 62.082031 L 188.222656 62.078125 C 230.382812 61.234375 263.269531 73.164062 285.84375 97.558594 C 314.558594 128.589844 321.046875 173.417969 322.15625 200.210938 C 319.949219 199.6875 317.652344 199.402344 315.289062 199.402344 L 294.792969 199.402344 C 278.492188 199.402344 265.28125 212.617188 265.28125 228.914062 L 265.28125 296.140625 C 265.28125 312.441406 278.492188 325.65625 294.792969 325.65625 L 315.289062 325.65625 C 331.585938 325.65625 344.804688 312.441406 344.804688 296.140625 L 344.804688 228.914062 C 344.800781 226.734375 344.558594 224.609375 344.109375 222.566406 Z M 344.109375 222.566406 " fill-opacity="1" fill-rule="nonzero"/></g><g clip-path="url(#2a52805683)"><path fill="#000000" d="M 23.636719 230.554688 L 5.804688 241.003906 L 5.804688 280.976562 L 23.636719 292.65625 " fill-opacity="1" fill-rule="nonzero"/></g><g clip-path="url(#98e246263d)"><path fill="#000000" d="M 351.363281 230.554688 L 369.191406 241.003906 L 369.191406 280.976562 L 351.363281 292.65625 " fill-opacity="1" fill-rule="nonzero"/></g><g clip-path="url(#4c89ca9c7a)"><path fill="#06af5e" d="M 344.109375 232.007812 C 345.167969 217.03125 347.960938 141.644531 302.183594 92.066406 C 275.164062 62.800781 236.753906 48.421875 187.996094 49.382812 C 139.265625 48.460938 100.832031 62.804688 73.8125 92.066406 C 29.199219 140.386719 30.71875 213.226562 31.804688 230.753906 C 31.160156 233.179688 30.8125 235.726562 30.8125 238.355469 L 30.8125 305.582031 C 30.8125 321.882812 44.019531 335.09375 60.324219 335.09375 L 80.816406 335.09375 C 97.117188 335.09375 110.332031 321.882812 110.332031 305.582031 L 110.332031 238.355469 C 110.332031 222.054688 97.117188 208.839844 80.816406 208.839844 L 60.328125 208.839844 C 58.101562 208.839844 55.933594 209.097656 53.847656 209.5625 C 54.964844 182.757812 61.472656 137.996094 90.15625 107 C 112.734375 82.601562 145.636719 70.632812 187.777344 71.519531 L 188 71.523438 L 188.222656 71.519531 C 230.382812 70.675781 263.269531 82.601562 285.84375 107 C 314.558594 138.03125 321.046875 182.859375 322.15625 209.652344 C 319.949219 209.125 317.652344 208.839844 315.289062 208.839844 L 294.792969 208.839844 C 278.492188 208.839844 265.28125 222.054688 265.28125 238.355469 L 265.28125 305.582031 C 265.28125 321.882812 278.492188 335.09375 294.792969 335.09375 L 315.289062 335.09375 C 331.585938 335.09375 344.804688 321.882812 344.804688 305.582031 L 344.804688 238.355469 C 344.800781 236.171875 344.558594 234.050781 344.109375 232.007812 Z M 344.109375 232.007812 " fill-opacity="1" fill-rule="nonzero"/></g><g clip-path="url(#3a11ee3be9)"><path fill="#06af5e" d="M 23.636719 239.996094 L 5.804688 250.445312 L 5.804688 290.414062 L 23.636719 302.097656 " fill-opacity="1" fill-rule="nonzero"/></g><g clip-path="url(#5f3be036bd)"><path fill="#06af5e" d="M 351.363281 239.996094 L 369.191406 250.445312 L 369.191406 290.414062 L 351.363281 302.097656 " fill-opacity="1" fill-rule="nonzero"/></g><g fill="#ff3131" fill-opacity="1"><g transform="translate(153.66304, 256.351822)"><g><path d="M 6.015625 0 L 6.015625 -37.25 L 0.53125 -37.25 L 0.53125 -46.109375 L 20.71875 -46.109375 L 20.71875 -37.25 L 15.25 -37.25 L 15.25 0 Z M 6.015625 0 "/></g></g></g><g fill="#ff3131" fill-opacity="1"><g transform="translate(174.912062, 256.351822)"><g><path d="M 6.015625 0 L 6.015625 -37.25 L 0.53125 -37.25 L 0.53125 -46.109375 L 20.71875 -46.109375 L 20.71875 -37.25 L 15.25 -37.25 L 15.25 0 Z M 6.015625 0 "/></g></g></g><g fill="#ff3131" fill-opacity="1"><g transform="translate(196.161085, 256.351822)"><g><path d="M 6.28125 0 L 0.59375 -46.15625 L 9.390625 -46.15625 L 12.78125 -14.765625 L 15.78125 -46.15625 L 24.578125 -46.15625 L 18.890625 0 Z M 6.28125 0 "/></g></g></g><g fill="#ffffff" fill-opacity="1"><g transform="translate(124.258533, 329.190077)"><g><path d="M 5.4375 -4.890625 L 5.4375 -3.8125 L 0.984375 -3.8125 L 0.984375 -4.890625 Z M 5.4375 -4.890625 "/></g></g></g><g fill="#ffffff" fill-opacity="1"><g transform="translate(133.25388, 329.190077)"><g/></g></g><g fill="#ffffff" fill-opacity="1"><g transform="translate(139.754813, 329.190077)"><g><path d="M 1.234375 0 L 1.234375 -10.140625 L 7.359375 -10.140625 L 7.359375 -9.0625 L 2.453125 -9.0625 L 2.453125 -5.625 L 7.03125 -5.625 L 7.03125 -4.53125 L 2.453125 -4.53125 L 2.453125 -1.09375 L 7.4375 -1.09375 L 7.4375 0 Z M 1.234375 0 "/></g></g></g><g fill="#ffffff" fill-opacity="1"><g transform="translate(150.670472, 329.190077)"><g><path d="M 6.78125 -7.609375 C 6.71875 -8.109375 6.472656 -8.5 6.046875 -8.78125 C 5.628906 -9.0625 5.113281 -9.203125 4.5 -9.203125 C 3.820312 -9.203125 3.28125 -9.039062 2.875 -8.71875 C 2.46875 -8.394531 2.265625 -7.992188 2.265625 -7.515625 C 2.265625 -7.148438 2.375 -6.851562 2.59375 -6.625 C 2.8125 -6.40625 3.070312 -6.234375 3.375 -6.109375 C 3.6875 -5.984375 3.96875 -5.890625 4.21875 -5.828125 L 5.25 -5.546875 C 5.519531 -5.484375 5.816406 -5.390625 6.140625 -5.265625 C 6.460938 -5.140625 6.769531 -4.972656 7.0625 -4.765625 C 7.363281 -4.554688 7.613281 -4.285156 7.8125 -3.953125 C 8.007812 -3.628906 8.109375 -3.226562 8.109375 -2.75 C 8.109375 -2.207031 7.960938 -1.710938 7.671875 -1.265625 C 7.390625 -0.828125 6.972656 -0.476562 6.421875 -0.21875 C 5.878906 0.0390625 5.21875 0.171875 4.4375 0.171875 C 3.34375 0.171875 2.472656 -0.0820312 1.828125 -0.59375 C 1.191406 -1.113281 0.847656 -1.785156 0.796875 -2.609375 L 2.0625 -2.609375 C 2.09375 -2.234375 2.222656 -1.921875 2.453125 -1.671875 C 2.679688 -1.421875 2.96875 -1.234375 3.3125 -1.109375 C 3.65625 -0.992188 4.03125 -0.9375 4.4375 -0.9375 C 4.90625 -0.9375 5.328125 -1.007812 5.703125 -1.15625 C 6.078125 -1.3125 6.375 -1.523438 6.59375 -1.796875 C 6.8125 -2.078125 6.921875 -2.40625 6.921875 -2.78125 C 6.921875 -3.113281 6.828125 -3.382812 6.640625 -3.59375 C 6.453125 -3.8125 6.203125 -3.984375 5.890625 -4.109375 C 5.585938 -4.242188 5.253906 -4.359375 4.890625 -4.453125 L 3.640625 -4.8125 C 2.847656 -5.039062 2.21875 -5.363281 1.75 -5.78125 C 1.289062 -6.207031 1.0625 -6.765625 1.0625 -7.453125 C 1.0625 -8.015625 1.21875 -8.507812 1.53125 -8.9375 C 1.84375 -9.363281 2.257812 -9.691406 2.78125 -9.921875 C 3.300781 -10.160156 3.882812 -10.28125 4.53125 -10.28125 C 5.1875 -10.28125 5.769531 -10.164062 6.28125 -9.9375 C 6.789062 -9.707031 7.191406 -9.390625 7.484375 -8.984375 C 7.785156 -8.578125 7.945312 -8.117188 7.96875 -7.609375 Z M 6.78125 -7.609375 "/></g></g></g><g fill="#ffffff" fill-opacity="1"><g transform="translate(162.140451, 329.190077)"><g><path d="M 0.671875 -9.0625 L 0.671875 -10.140625 L 8.28125 -10.140625 L 8.28125 -9.0625 L 5.09375 -9.0625 L 5.09375 0 L 3.859375 0 L 3.859375 -9.0625 Z M 0.671875 -9.0625 "/></g></g></g><g fill="#ffffff" fill-opacity="1"><g transform="translate(173.669816, 329.190077)"><g><path d="M 4.359375 0 L 1.234375 0 L 1.234375 -10.140625 L 4.5 -10.140625 C 5.476562 -10.140625 6.316406 -9.9375 7.015625 -9.53125 C 7.722656 -9.132812 8.265625 -8.554688 8.640625 -7.796875 C 9.015625 -7.046875 9.203125 -6.144531 9.203125 -5.09375 C 9.203125 -4.039062 9.007812 -3.128906 8.625 -2.359375 C 8.25 -1.597656 7.703125 -1.015625 6.984375 -0.609375 C 6.265625 -0.203125 5.390625 0 4.359375 0 Z M 2.453125 -1.09375 L 4.28125 -1.09375 C 5.539062 -1.09375 6.472656 -1.445312 7.078125 -2.15625 C 7.691406 -2.875 8 -3.851562 8 -5.09375 C 8 -6.320312 7.695312 -7.289062 7.09375 -8 C 6.5 -8.707031 5.609375 -9.0625 4.421875 -9.0625 L 2.453125 -9.0625 Z M 2.453125 -1.09375 "/></g></g></g><g fill="#ffffff" fill-opacity="1"><g transform="translate(186.26822, 329.190077)"><g/></g></g><g fill="#ffffff" fill-opacity="1"><g transform="translate(192.769155, 329.190077)"><g><path d="M 1.046875 0 L 1.046875 -0.890625 L 4.40625 -4.5625 C 4.789062 -4.988281 5.109375 -5.359375 5.359375 -5.671875 C 5.617188 -5.992188 5.8125 -6.296875 5.9375 -6.578125 C 6.0625 -6.859375 6.125 -7.15625 6.125 -7.46875 C 6.125 -8.007812 5.9375 -8.4375 5.5625 -8.75 C 5.195312 -9.0625 4.738281 -9.21875 4.1875 -9.21875 C 3.59375 -9.21875 3.125 -9.039062 2.78125 -8.6875 C 2.4375 -8.332031 2.265625 -7.867188 2.265625 -7.296875 L 1.09375 -7.296875 C 1.09375 -7.890625 1.226562 -8.410156 1.5 -8.859375 C 1.769531 -9.304688 2.140625 -9.65625 2.609375 -9.90625 C 3.085938 -10.15625 3.625 -10.28125 4.21875 -10.28125 C 4.8125 -10.28125 5.335938 -10.15625 5.796875 -9.90625 C 6.253906 -9.65625 6.613281 -9.316406 6.875 -8.890625 C 7.144531 -8.460938 7.28125 -7.988281 7.28125 -7.46875 C 7.28125 -7.09375 7.210938 -6.726562 7.078125 -6.375 C 6.941406 -6.019531 6.707031 -5.625 6.375 -5.1875 C 6.050781 -4.757812 5.597656 -4.234375 5.015625 -3.609375 L 2.734375 -1.171875 L 2.734375 -1.09375 L 7.453125 -1.09375 L 7.453125 0 Z M 1.046875 0 "/></g></g></g><g fill="#ffffff" fill-opacity="1"><g transform="translate(203.7838, 329.190077)"><g><path d="M 4.359375 0.140625 C 3.242188 0.140625 2.375 -0.3125 1.75 -1.21875 C 1.132812 -2.132812 0.828125 -3.421875 0.828125 -5.078125 C 0.828125 -6.722656 1.140625 -8 1.765625 -8.90625 C 2.390625 -9.820312 3.253906 -10.28125 4.359375 -10.28125 C 5.472656 -10.28125 6.335938 -9.820312 6.953125 -8.90625 C 7.578125 -8 7.890625 -6.722656 7.890625 -5.078125 C 7.890625 -3.421875 7.582031 -2.132812 6.96875 -1.21875 C 6.351562 -0.3125 5.484375 0.140625 4.359375 0.140625 Z M 4.359375 -0.953125 C 5.097656 -0.953125 5.671875 -1.304688 6.078125 -2.015625 C 6.492188 -2.734375 6.703125 -3.753906 6.703125 -5.078125 C 6.703125 -6.390625 6.492188 -7.40625 6.078125 -8.125 C 5.660156 -8.851562 5.085938 -9.21875 4.359375 -9.21875 C 3.628906 -9.21875 3.054688 -8.851562 2.640625 -8.125 C 2.222656 -7.40625 2.015625 -6.390625 2.015625 -5.078125 C 2.015625 -3.753906 2.21875 -2.734375 2.625 -2.015625 C 3.039062 -1.304688 3.617188 -0.953125 4.359375 -0.953125 Z M 4.359375 -0.953125 "/></g></g></g><g fill="#ffffff" fill-opacity="1"><g transform="translate(215.075613, 329.190077)"><g><path d="M 4.484375 0.140625 C 3.828125 0.140625 3.242188 0.03125 2.734375 -0.1875 C 2.222656 -0.414062 1.816406 -0.726562 1.515625 -1.125 C 1.210938 -1.53125 1.050781 -2 1.03125 -2.53125 L 2.28125 -2.53125 C 2.3125 -2.039062 2.535156 -1.65625 2.953125 -1.375 C 3.367188 -1.09375 3.867188 -0.953125 4.453125 -0.953125 C 5.109375 -0.953125 5.644531 -1.117188 6.0625 -1.453125 C 6.488281 -1.785156 6.703125 -2.21875 6.703125 -2.75 C 6.703125 -3.3125 6.492188 -3.769531 6.078125 -4.125 C 5.660156 -4.476562 5.066406 -4.65625 4.296875 -4.65625 L 3.484375 -4.65625 L 3.484375 -5.75 L 4.296875 -5.75 C 4.898438 -5.75 5.390625 -5.90625 5.765625 -6.21875 C 6.148438 -6.539062 6.34375 -6.972656 6.34375 -7.515625 C 6.34375 -8.023438 6.175781 -8.4375 5.84375 -8.75 C 5.507812 -9.0625 5.0625 -9.21875 4.5 -9.21875 C 4.144531 -9.21875 3.8125 -9.148438 3.5 -9.015625 C 3.195312 -8.890625 2.945312 -8.707031 2.75 -8.46875 C 2.5625 -8.226562 2.457031 -7.941406 2.4375 -7.609375 L 1.25 -7.609375 C 1.269531 -8.140625 1.429688 -8.601562 1.734375 -9 C 2.035156 -9.40625 2.425781 -9.71875 2.90625 -9.9375 C 3.394531 -10.164062 3.929688 -10.28125 4.515625 -10.28125 C 5.140625 -10.28125 5.675781 -10.15625 6.125 -9.90625 C 6.582031 -9.65625 6.929688 -9.320312 7.171875 -8.90625 C 7.410156 -8.5 7.53125 -8.054688 7.53125 -7.578125 C 7.53125 -7.003906 7.378906 -6.515625 7.078125 -6.109375 C 6.785156 -5.703125 6.378906 -5.421875 5.859375 -5.265625 L 5.859375 -5.1875 C 6.503906 -5.082031 7.003906 -4.8125 7.359375 -4.375 C 7.722656 -3.9375 7.90625 -3.394531 7.90625 -2.75 C 7.90625 -2.195312 7.753906 -1.703125 7.453125 -1.265625 C 7.160156 -0.828125 6.753906 -0.484375 6.234375 -0.234375 C 5.722656 0.015625 5.140625 0.140625 4.484375 0.140625 Z M 4.484375 0.140625 "/></g></g></g><g fill="#ffffff" fill-opacity="1"><g transform="translate(226.525794, 329.190077)"><g><path d="M 4.359375 0.140625 C 3.242188 0.140625 2.375 -0.3125 1.75 -1.21875 C 1.132812 -2.132812 0.828125 -3.421875 0.828125 -5.078125 C 0.828125 -6.722656 1.140625 -8 1.765625 -8.90625 C 2.390625 -9.820312 3.253906 -10.28125 4.359375 -10.28125 C 5.472656 -10.28125 6.335938 -9.820312 6.953125 -8.90625 C 7.578125 -8 7.890625 -6.722656 7.890625 -5.078125 C 7.890625 -3.421875 7.582031 -2.132812 6.96875 -1.21875 C 6.351562 -0.3125 5.484375 0.140625 4.359375 0.140625 Z M 4.359375 -0.953125 C 5.097656 -0.953125 5.671875 -1.304688 6.078125 -2.015625 C 6.492188 -2.734375 6.703125 -3.753906 6.703125 -5.078125 C 6.703125 -6.390625 6.492188 -7.40625 6.078125 -8.125 C 5.660156 -8.851562 5.085938 -9.21875 4.359375 -9.21875 C 3.628906 -9.21875 3.054688 -8.851562 2.640625 -8.125 C 2.222656 -7.40625 2.015625 -6.390625 2.015625 -5.078125 C 2.015625 -3.753906 2.21875 -2.734375 2.625 -2.015625 C 3.039062 -1.304688 3.617188 -0.953125 4.359375 -0.953125 Z M 4.359375 -0.953125 "/></g></g></g><g fill="#ffffff" fill-opacity="1"><g transform="translate(237.817607, 329.190077)"><g/></g></g><g fill="#ffffff" fill-opacity="1"><g transform="translate(244.318542, 329.190077)"><g><path d="M 5.4375 -4.890625 L 5.4375 -3.8125 L 0.984375 -3.8125 L 0.984375 -4.890625 Z M 5.4375 -4.890625 "/></g></g></g></svg>